<mxfile host="app.diagrams.net" modified="2021-04-17T21:01:42.500Z" agent="5.0 (Windows NT 10.0; Win64; x64) AppleWebKit/537.36 (KHTML, like Gecko) Chrome/89.0.4389.128 Safari/537.36 Edg/89.0.774.77" etag="v9D4QVMYpWDMYfqKWRxY" version="14.4.7" type="github">
  <diagram id="piDafpqhtRUU5qUU-vj8" name="Page-1">
    <mxGraphModel dx="2374" dy="1134" grid="1" gridSize="10" guides="1" tooltips="1" connect="1" arrows="1" fold="1" page="1" pageScale="1" pageWidth="827" pageHeight="1169" math="0" shadow="0">
      <root>
        <mxCell id="0" />
        <mxCell id="1" parent="0" />
        <mxCell id="4rWkRKcFM0BYtaD7CyUO-1" value="" style="strokeWidth=1;shadow=0;dashed=0;align=center;html=1;shape=mxgraph.mockup.containers.browserWindow;rSize=0;strokeColor=#666666;strokeColor2=#008cff;strokeColor3=#c4c4c4;mainText=,;recursiveResize=0;" vertex="1" parent="1">
          <mxGeometry width="1920" height="1080" as="geometry" />
        </mxCell>
        <mxCell id="4rWkRKcFM0BYtaD7CyUO-2" value="Page 1" style="strokeWidth=1;shadow=0;dashed=0;align=center;html=1;shape=mxgraph.mockup.containers.anchor;fontSize=17;fontColor=#666666;align=left;" vertex="1" parent="4rWkRKcFM0BYtaD7CyUO-1">
          <mxGeometry x="60" y="12" width="110" height="26" as="geometry" />
        </mxCell>
        <mxCell id="4rWkRKcFM0BYtaD7CyUO-3" value="https://www.draw.io" style="strokeWidth=1;shadow=0;dashed=0;align=center;html=1;shape=mxgraph.mockup.containers.anchor;rSize=0;fontSize=17;fontColor=#666666;align=left;" vertex="1" parent="4rWkRKcFM0BYtaD7CyUO-1">
          <mxGeometry x="130" y="60" width="250" height="26" as="geometry" />
        </mxCell>
        <mxCell id="4rWkRKcFM0BYtaD7CyUO-4" value="" style="rounded=0;whiteSpace=wrap;html=1;" vertex="1" parent="4rWkRKcFM0BYtaD7CyUO-1">
          <mxGeometry y="110" width="1920" height="80" as="geometry" />
        </mxCell>
        <mxCell id="4rWkRKcFM0BYtaD7CyUO-6" value="" style="rounded=0;whiteSpace=wrap;html=1;" vertex="1" parent="4rWkRKcFM0BYtaD7CyUO-1">
          <mxGeometry x="835" y="135" width="250" height="30" as="geometry" />
        </mxCell>
        <mxCell id="4rWkRKcFM0BYtaD7CyUO-8" value="Instagram" style="text;strokeColor=none;fillColor=none;html=1;fontSize=24;fontStyle=1;verticalAlign=middle;align=center;" vertex="1" parent="4rWkRKcFM0BYtaD7CyUO-1">
          <mxGeometry x="500" y="125" width="100" height="40" as="geometry" />
        </mxCell>
        <mxCell id="4rWkRKcFM0BYtaD7CyUO-9" value="" style="verticalLabelPosition=bottom;shadow=0;dashed=0;align=center;html=1;verticalAlign=top;strokeWidth=1;shape=mxgraph.mockup.containers.userMale;strokeColor=#666666;strokeColor2=#008cff;" vertex="1" parent="4rWkRKcFM0BYtaD7CyUO-1">
          <mxGeometry x="1380" y="130" width="40" height="40" as="geometry" />
        </mxCell>
        <mxCell id="4rWkRKcFM0BYtaD7CyUO-10" value="" style="rounded=0;whiteSpace=wrap;html=1;" vertex="1" parent="4rWkRKcFM0BYtaD7CyUO-1">
          <mxGeometry x="480" y="230" width="660" height="120" as="geometry" />
        </mxCell>
        <mxCell id="4rWkRKcFM0BYtaD7CyUO-11" value="" style="strokeWidth=1;shadow=0;dashed=0;align=center;html=1;shape=mxgraph.mockup.containers.browserWindow;rSize=0;strokeColor=#666666;strokeColor2=#008cff;strokeColor3=#c4c4c4;mainText=,;recursiveResize=0;" vertex="1" parent="4rWkRKcFM0BYtaD7CyUO-1">
          <mxGeometry width="1920" height="1080" as="geometry" />
        </mxCell>
        <mxCell id="4rWkRKcFM0BYtaD7CyUO-12" value="Page 1" style="strokeWidth=1;shadow=0;dashed=0;align=center;html=1;shape=mxgraph.mockup.containers.anchor;fontSize=17;fontColor=#666666;align=left;" vertex="1" parent="4rWkRKcFM0BYtaD7CyUO-11">
          <mxGeometry x="60" y="12" width="110" height="26" as="geometry" />
        </mxCell>
        <mxCell id="4rWkRKcFM0BYtaD7CyUO-13" value="https://www.draw.io" style="strokeWidth=1;shadow=0;dashed=0;align=center;html=1;shape=mxgraph.mockup.containers.anchor;rSize=0;fontSize=17;fontColor=#666666;align=left;" vertex="1" parent="4rWkRKcFM0BYtaD7CyUO-11">
          <mxGeometry x="130" y="60" width="250" height="26" as="geometry" />
        </mxCell>
        <mxCell id="4rWkRKcFM0BYtaD7CyUO-14" value="" style="rounded=0;whiteSpace=wrap;html=1;" vertex="1" parent="4rWkRKcFM0BYtaD7CyUO-11">
          <mxGeometry y="110" width="1920" height="80" as="geometry" />
        </mxCell>
        <mxCell id="4rWkRKcFM0BYtaD7CyUO-15" value="" style="rounded=0;whiteSpace=wrap;html=1;" vertex="1" parent="4rWkRKcFM0BYtaD7CyUO-11">
          <mxGeometry x="835" y="135" width="250" height="30" as="geometry" />
        </mxCell>
        <mxCell id="4rWkRKcFM0BYtaD7CyUO-16" value="Instagram" style="text;strokeColor=none;fillColor=none;html=1;fontSize=24;fontStyle=1;verticalAlign=middle;align=center;" vertex="1" parent="4rWkRKcFM0BYtaD7CyUO-11">
          <mxGeometry x="500" y="125" width="100" height="40" as="geometry" />
        </mxCell>
        <mxCell id="4rWkRKcFM0BYtaD7CyUO-17" value="" style="verticalLabelPosition=bottom;shadow=0;dashed=0;align=center;html=1;verticalAlign=top;strokeWidth=1;shape=mxgraph.mockup.containers.userMale;strokeColor=#666666;strokeColor2=#008cff;" vertex="1" parent="4rWkRKcFM0BYtaD7CyUO-11">
          <mxGeometry x="1380" y="130" width="40" height="40" as="geometry" />
        </mxCell>
        <mxCell id="4rWkRKcFM0BYtaD7CyUO-18" value="" style="rounded=0;whiteSpace=wrap;html=1;" vertex="1" parent="4rWkRKcFM0BYtaD7CyUO-11">
          <mxGeometry x="480" y="230" width="660" height="120" as="geometry" />
        </mxCell>
        <mxCell id="4rWkRKcFM0BYtaD7CyUO-19" value="" style="rounded=0;whiteSpace=wrap;html=1;" vertex="1" parent="4rWkRKcFM0BYtaD7CyUO-11">
          <mxGeometry x="480" y="390" width="660" height="650" as="geometry" />
        </mxCell>
        <mxCell id="4rWkRKcFM0BYtaD7CyUO-20" value="" style="verticalLabelPosition=bottom;shadow=0;dashed=0;align=center;html=1;verticalAlign=top;strokeWidth=1;shape=mxgraph.mockup.containers.userMale;strokeColor=#666666;strokeColor2=#008cff;" vertex="1" parent="4rWkRKcFM0BYtaD7CyUO-11">
          <mxGeometry x="1170" y="250" width="80" height="80" as="geometry" />
        </mxCell>
        <mxCell id="4rWkRKcFM0BYtaD7CyUO-21" value="" style="verticalLabelPosition=bottom;shadow=0;dashed=0;align=center;html=1;verticalAlign=top;strokeWidth=1;shape=mxgraph.mockup.containers.userMale;strokeColor=#666666;strokeColor2=#008cff;" vertex="1" parent="4rWkRKcFM0BYtaD7CyUO-11">
          <mxGeometry x="1180" y="390" width="60" height="60" as="geometry" />
        </mxCell>
        <mxCell id="4rWkRKcFM0BYtaD7CyUO-23" value="" style="verticalLabelPosition=bottom;shadow=0;dashed=0;align=center;html=1;verticalAlign=top;strokeWidth=1;shape=mxgraph.mockup.containers.userMale;strokeColor=#666666;strokeColor2=#008cff;" vertex="1" parent="4rWkRKcFM0BYtaD7CyUO-11">
          <mxGeometry x="1181" y="460" width="60" height="60" as="geometry" />
        </mxCell>
        <mxCell id="4rWkRKcFM0BYtaD7CyUO-22" value="" style="verticalLabelPosition=bottom;shadow=0;dashed=0;align=center;html=1;verticalAlign=top;strokeWidth=1;shape=mxgraph.mockup.containers.userMale;strokeColor=#666666;strokeColor2=#008cff;" vertex="1" parent="4rWkRKcFM0BYtaD7CyUO-11">
          <mxGeometry x="1180" y="530" width="60" height="60" as="geometry" />
        </mxCell>
        <mxCell id="4rWkRKcFM0BYtaD7CyUO-25" value="&lt;font style=&quot;font-size: 18px ; font-weight: normal&quot;&gt;Pesquisar&lt;/font&gt;" style="text;strokeColor=none;fillColor=none;html=1;fontSize=24;fontStyle=1;verticalAlign=middle;align=center;" vertex="1" parent="4rWkRKcFM0BYtaD7CyUO-11">
          <mxGeometry x="910" y="130" width="100" height="40" as="geometry" />
        </mxCell>
        <mxCell id="4rWkRKcFM0BYtaD7CyUO-26" value="" style="verticalLabelPosition=bottom;shadow=0;dashed=0;align=center;html=1;verticalAlign=top;strokeWidth=1;shape=mxgraph.mockup.containers.userMale;strokeColor=#666666;strokeColor2=#008cff;" vertex="1" parent="4rWkRKcFM0BYtaD7CyUO-11">
          <mxGeometry x="500" y="240" width="80" height="80" as="geometry" />
        </mxCell>
        <mxCell id="4rWkRKcFM0BYtaD7CyUO-27" value="" style="verticalLabelPosition=bottom;shadow=0;dashed=0;align=center;html=1;verticalAlign=top;strokeWidth=1;shape=mxgraph.mockup.containers.userMale;strokeColor=#666666;strokeColor2=#008cff;" vertex="1" parent="4rWkRKcFM0BYtaD7CyUO-11">
          <mxGeometry x="600" y="240" width="80" height="80" as="geometry" />
        </mxCell>
        <mxCell id="4rWkRKcFM0BYtaD7CyUO-28" value="" style="verticalLabelPosition=bottom;shadow=0;dashed=0;align=center;html=1;verticalAlign=top;strokeWidth=1;shape=mxgraph.mockup.containers.userMale;strokeColor=#666666;strokeColor2=#008cff;" vertex="1" parent="4rWkRKcFM0BYtaD7CyUO-11">
          <mxGeometry x="700" y="240" width="80" height="80" as="geometry" />
        </mxCell>
        <mxCell id="4rWkRKcFM0BYtaD7CyUO-30" value="" style="verticalLabelPosition=bottom;shadow=0;dashed=0;align=center;html=1;verticalAlign=top;strokeWidth=1;shape=mxgraph.mockup.containers.userMale;strokeColor=#666666;strokeColor2=#008cff;" vertex="1" parent="4rWkRKcFM0BYtaD7CyUO-11">
          <mxGeometry x="800" y="240" width="80" height="80" as="geometry" />
        </mxCell>
        <mxCell id="4rWkRKcFM0BYtaD7CyUO-29" value="" style="verticalLabelPosition=bottom;shadow=0;dashed=0;align=center;html=1;verticalAlign=top;strokeWidth=1;shape=mxgraph.mockup.containers.userMale;strokeColor=#666666;strokeColor2=#008cff;" vertex="1" parent="4rWkRKcFM0BYtaD7CyUO-11">
          <mxGeometry x="900" y="240" width="80" height="80" as="geometry" />
        </mxCell>
        <mxCell id="4rWkRKcFM0BYtaD7CyUO-31" value="" style="verticalLabelPosition=bottom;shadow=0;dashed=0;align=center;html=1;verticalAlign=top;strokeWidth=1;shape=mxgraph.mockup.containers.userMale;strokeColor=#666666;strokeColor2=#008cff;" vertex="1" parent="4rWkRKcFM0BYtaD7CyUO-11">
          <mxGeometry x="1000" y="240" width="80" height="80" as="geometry" />
        </mxCell>
        <mxCell id="4rWkRKcFM0BYtaD7CyUO-34" value="Fulano" style="text;strokeColor=none;fillColor=none;html=1;fontSize=24;fontStyle=1;verticalAlign=middle;align=center;" vertex="1" parent="4rWkRKcFM0BYtaD7CyUO-11">
          <mxGeometry x="490" y="320" width="100" height="40" as="geometry" />
        </mxCell>
        <mxCell id="4rWkRKcFM0BYtaD7CyUO-33" value="Fulano" style="text;strokeColor=none;fillColor=none;html=1;fontSize=24;fontStyle=1;verticalAlign=middle;align=center;" vertex="1" parent="4rWkRKcFM0BYtaD7CyUO-11">
          <mxGeometry x="590" y="320" width="100" height="40" as="geometry" />
        </mxCell>
        <mxCell id="4rWkRKcFM0BYtaD7CyUO-35" value="Fulano" style="text;strokeColor=none;fillColor=none;html=1;fontSize=24;fontStyle=1;verticalAlign=middle;align=center;" vertex="1" parent="4rWkRKcFM0BYtaD7CyUO-11">
          <mxGeometry x="690" y="320" width="100" height="40" as="geometry" />
        </mxCell>
        <mxCell id="4rWkRKcFM0BYtaD7CyUO-37" value="Fulano" style="text;strokeColor=none;fillColor=none;html=1;fontSize=24;fontStyle=1;verticalAlign=middle;align=center;" vertex="1" parent="4rWkRKcFM0BYtaD7CyUO-11">
          <mxGeometry x="790" y="320" width="100" height="40" as="geometry" />
        </mxCell>
        <mxCell id="4rWkRKcFM0BYtaD7CyUO-36" value="Fulano" style="text;strokeColor=none;fillColor=none;html=1;fontSize=24;fontStyle=1;verticalAlign=middle;align=center;" vertex="1" parent="4rWkRKcFM0BYtaD7CyUO-11">
          <mxGeometry x="890" y="320" width="100" height="40" as="geometry" />
        </mxCell>
        <mxCell id="4rWkRKcFM0BYtaD7CyUO-38" value="Fulano" style="text;strokeColor=none;fillColor=none;html=1;fontSize=24;fontStyle=1;verticalAlign=middle;align=center;" vertex="1" parent="4rWkRKcFM0BYtaD7CyUO-11">
          <mxGeometry x="990" y="320" width="100" height="40" as="geometry" />
        </mxCell>
        <mxCell id="4rWkRKcFM0BYtaD7CyUO-44" value="" style="shape=singleArrow;whiteSpace=wrap;html=1;arrowWidth=0.35172413793102353;arrowSize=0.6275862068965467;" vertex="1" parent="4rWkRKcFM0BYtaD7CyUO-11">
          <mxGeometry x="1100" y="270" width="20" height="20" as="geometry" />
        </mxCell>
        <mxCell id="4rWkRKcFM0BYtaD7CyUO-45" value="&lt;font style=&quot;font-size: 18px&quot;&gt;Nick&lt;/font&gt;" style="text;strokeColor=none;fillColor=none;html=1;fontSize=24;fontStyle=1;verticalAlign=middle;align=center;" vertex="1" parent="4rWkRKcFM0BYtaD7CyUO-11">
          <mxGeometry x="1230" y="250" width="100" height="40" as="geometry" />
        </mxCell>
        <mxCell id="4rWkRKcFM0BYtaD7CyUO-46" value="&lt;span style=&quot;font-weight: 400&quot;&gt;&lt;font style=&quot;font-size: 12px&quot;&gt;Nome do usuario&lt;/font&gt;&lt;/span&gt;" style="text;strokeColor=none;fillColor=none;html=1;fontSize=24;fontStyle=1;verticalAlign=middle;align=center;" vertex="1" parent="4rWkRKcFM0BYtaD7CyUO-11">
          <mxGeometry x="1250" y="270" width="100" height="40" as="geometry" />
        </mxCell>
        <mxCell id="4rWkRKcFM0BYtaD7CyUO-47" value="&lt;font style=&quot;font-size: 18px&quot;&gt;&lt;i&gt;seguir&lt;/i&gt;&lt;/font&gt;" style="text;strokeColor=none;fillColor=none;html=1;fontSize=24;fontStyle=1;verticalAlign=middle;align=center;" vertex="1" parent="4rWkRKcFM0BYtaD7CyUO-11">
          <mxGeometry x="1360" y="260" width="100" height="40" as="geometry" />
        </mxCell>
        <mxCell id="4rWkRKcFM0BYtaD7CyUO-48" value="&lt;font style=&quot;font-size: 18px&quot;&gt;Nick&lt;/font&gt;" style="text;strokeColor=none;fillColor=none;html=1;fontSize=24;fontStyle=1;verticalAlign=middle;align=center;" vertex="1" parent="4rWkRKcFM0BYtaD7CyUO-11">
          <mxGeometry x="1220" y="390" width="100" height="40" as="geometry" />
        </mxCell>
        <mxCell id="4rWkRKcFM0BYtaD7CyUO-49" value="&lt;span style=&quot;font-weight: 400&quot;&gt;&lt;font style=&quot;font-size: 12px&quot;&gt;Nome do usuario&lt;/font&gt;&lt;/span&gt;" style="text;strokeColor=none;fillColor=none;html=1;fontSize=24;fontStyle=1;verticalAlign=middle;align=center;" vertex="1" parent="4rWkRKcFM0BYtaD7CyUO-11">
          <mxGeometry x="1240" y="410" width="100" height="40" as="geometry" />
        </mxCell>
        <mxCell id="4rWkRKcFM0BYtaD7CyUO-50" value="&lt;font style=&quot;font-size: 18px&quot;&gt;&lt;i&gt;seguir&lt;/i&gt;&lt;/font&gt;" style="text;strokeColor=none;fillColor=none;html=1;fontSize=24;fontStyle=1;verticalAlign=middle;align=center;" vertex="1" parent="4rWkRKcFM0BYtaD7CyUO-11">
          <mxGeometry x="1350" y="400" width="100" height="40" as="geometry" />
        </mxCell>
        <mxCell id="4rWkRKcFM0BYtaD7CyUO-51" value="&lt;font style=&quot;font-size: 18px&quot;&gt;Nick&lt;/font&gt;" style="text;strokeColor=none;fillColor=none;html=1;fontSize=24;fontStyle=1;verticalAlign=middle;align=center;" vertex="1" parent="4rWkRKcFM0BYtaD7CyUO-11">
          <mxGeometry x="1220" y="460" width="100" height="40" as="geometry" />
        </mxCell>
        <mxCell id="4rWkRKcFM0BYtaD7CyUO-52" value="&lt;span style=&quot;font-weight: 400&quot;&gt;&lt;font style=&quot;font-size: 12px&quot;&gt;Nome do usuario&lt;/font&gt;&lt;/span&gt;" style="text;strokeColor=none;fillColor=none;html=1;fontSize=24;fontStyle=1;verticalAlign=middle;align=center;" vertex="1" parent="4rWkRKcFM0BYtaD7CyUO-11">
          <mxGeometry x="1240" y="480" width="100" height="40" as="geometry" />
        </mxCell>
        <mxCell id="4rWkRKcFM0BYtaD7CyUO-53" value="&lt;font style=&quot;font-size: 18px&quot;&gt;&lt;i&gt;seguir&lt;/i&gt;&lt;/font&gt;" style="text;strokeColor=none;fillColor=none;html=1;fontSize=24;fontStyle=1;verticalAlign=middle;align=center;" vertex="1" parent="4rWkRKcFM0BYtaD7CyUO-11">
          <mxGeometry x="1350" y="470" width="100" height="40" as="geometry" />
        </mxCell>
        <mxCell id="4rWkRKcFM0BYtaD7CyUO-54" value="&lt;font style=&quot;font-size: 18px&quot;&gt;Nick&lt;/font&gt;" style="text;strokeColor=none;fillColor=none;html=1;fontSize=24;fontStyle=1;verticalAlign=middle;align=center;" vertex="1" parent="4rWkRKcFM0BYtaD7CyUO-11">
          <mxGeometry x="1220" y="530" width="100" height="40" as="geometry" />
        </mxCell>
        <mxCell id="4rWkRKcFM0BYtaD7CyUO-55" value="&lt;span style=&quot;font-weight: 400&quot;&gt;&lt;font style=&quot;font-size: 12px&quot;&gt;Nome do usuario&lt;/font&gt;&lt;/span&gt;" style="text;strokeColor=none;fillColor=none;html=1;fontSize=24;fontStyle=1;verticalAlign=middle;align=center;" vertex="1" parent="4rWkRKcFM0BYtaD7CyUO-11">
          <mxGeometry x="1240" y="550" width="100" height="40" as="geometry" />
        </mxCell>
        <mxCell id="4rWkRKcFM0BYtaD7CyUO-56" value="&lt;font style=&quot;font-size: 18px&quot;&gt;&lt;i&gt;seguir&lt;/i&gt;&lt;/font&gt;" style="text;strokeColor=none;fillColor=none;html=1;fontSize=24;fontStyle=1;verticalAlign=middle;align=center;" vertex="1" parent="4rWkRKcFM0BYtaD7CyUO-11">
          <mxGeometry x="1350" y="540" width="100" height="40" as="geometry" />
        </mxCell>
      </root>
    </mxGraphModel>
  </diagram>
</mxfile>
